<?xml version="1.0" standalone="no"?>
<svg xmlns:xlink="http://www.w3.org/1999/xlink" id="wave" style="transform:rotate(180deg); transition: 0.3s" viewBox="0 0 1440 110" version="1.1" xmlns="http://www.w3.org/2000/svg"><defs><linearGradient id="sw-gradient-0" x1="0" x2="0" y1="1" y2="0"><stop stop-color="rgba(245, 219, 153, 1)" offset="0%"/><stop stop-color="rgba(245, 219, 153, 1)" offset="100%"/></linearGradient></defs><path style="transform:translate(0, 0px); opacity:1" fill="url(#sw-gradient-0)" d="M0,77L40,77C80,77,160,77,240,67.8C320,59,400,40,480,34.8C560,29,640,37,720,45.8C800,55,880,66,960,71.5C1040,77,1120,77,1200,71.5C1280,66,1360,55,1440,44C1520,33,1600,22,1680,20.2C1760,18,1840,26,1920,25.7C2000,26,2080,18,2160,16.5C2240,15,2320,18,2400,29.3C2480,40,2560,59,2640,71.5C2720,84,2800,92,2880,93.5C2960,95,3040,92,3120,84.3C3200,77,3280,66,3360,67.8C3440,70,3520,84,3600,84.3C3680,84,3760,70,3840,64.2C3920,59,4000,62,4080,62.3C4160,62,4240,59,4320,64.2C4400,70,4480,84,4560,91.7C4640,99,4720,99,4800,93.5C4880,88,4960,77,5040,64.2C5120,51,5200,37,5280,25.7C5360,15,5440,7,5520,20.2C5600,33,5680,66,5720,82.5L5760,99L5760,110L5720,110C5680,110,5600,110,5520,110C5440,110,5360,110,5280,110C5200,110,5120,110,5040,110C4960,110,4880,110,4800,110C4720,110,4640,110,4560,110C4480,110,4400,110,4320,110C4240,110,4160,110,4080,110C4000,110,3920,110,3840,110C3760,110,3680,110,3600,110C3520,110,3440,110,3360,110C3280,110,3200,110,3120,110C3040,110,2960,110,2880,110C2800,110,2720,110,2640,110C2560,110,2480,110,2400,110C2320,110,2240,110,2160,110C2080,110,2000,110,1920,110C1840,110,1760,110,1680,110C1600,110,1520,110,1440,110C1360,110,1280,110,1200,110C1120,110,1040,110,960,110C880,110,800,110,720,110C640,110,560,110,480,110C400,110,320,110,240,110C160,110,80,110,40,110L0,110Z"/></svg>